<?xml version="1.0" encoding="UTF-8"?>
<svg id="Layer_1" xmlns="http://www.w3.org/2000/svg" version="1.1" viewBox="0 0 128 128">
  <!-- Generator: Adobe Illustrator 29.2.1, SVG Export Plug-In . SVG Version: 2.1.0 Build 116)  -->
  <defs>
    <style>
      .st0 {
        fill: #fff;
      }
    </style>
  </defs>
  <rect x="2" y="2" width="124" height="124" rx="14" ry="14"/>
  <path class="st0" d="M59.5,101.2h6.2c1-.1,2-.5,2.6-1.3l33.7-36.4c.9-.9,1.2-2.2.9-3.4l-2.4-9.5c-.3-1.3,0-2.7,1.1-3.6l1.4-1.3c1.9-1.7,1.5-4.8-.8-6l-12.2-6.3c-1.5-.8-3.3-.5-4.4.8l-12.3,13.3c-.9.9-1.2,2.2-.9,3.5l1.3,4.8c.4,1.3,0,2.7-1.1,3.7l-3.3,3.1c-1.7,1.5-4.3,1.2-5.6-.7l-3.8-5.7c-1-1.5-.8-3.5.5-4.7l7.4-7.1c1.8-1.8,1.4-4.8-.9-5.9l-7.7-3.9c-1.5-.7-3.2-.4-4.4.8l-34.5,37.1c-.7.7-1,1.7-1,2.6h0c0,2,1.7,3.5,3.7,3.5h7.2c.9,0,1.8-.4,2.5-1l10.2-9.5c1.7-1.5,4.3-1.2,5.6.7l9.4,14.2c1,1.5.8,3.5-.6,4.7l-4.1,3.8c-1.6,1.5-1.6,3.9,0,5.4l3.5,3.3c.7.6,1.6,1,2.6,1Z"/>
</svg>