<?xml version="1.0" encoding="UTF-8"?>
<svg id="Layer_1" xmlns="http://www.w3.org/2000/svg" version="1.1" xmlns:xlink="http://www.w3.org/1999/xlink" viewBox="0 0 1024 1022.9">
  <!-- Generator: Adobe Illustrator 29.2.1, SVG Export Plug-In . SVG Version: 2.1.0 Build 116)  -->
  <defs>
    <style>
      .st0 {
        fill: url(#linear-gradient2);
      }

      .st1 {
        fill: #38bb96;
      }

      .st2 {
        fill: #252525;
      }

      .st3 {
        fill: #ea3031;
      }

      .st4 {
        fill: #f6f6f6;
      }

      .st5 {
        fill: #fff;
      }

      .st6 {
        fill: url(#linear-gradient1);
      }

      .st7 {
        fill: #e5e5e5;
      }

      .st8 {
        fill: #b2b2b2;
      }

      .st9 {
        fill: #e4783e;
      }

      .st10 {
        fill: #220f0f;
      }

      .st11 {
        fill: url(#linear-gradient4);
      }

      .st12 {
        fill: #ccdde7;
      }

      .st13 {
        fill: #f2654c;
      }

      .st14 {
        fill: url(#linear-gradient3);
      }

      .st15 {
        fill: #f4f4f4;
      }

      .st16 {
        fill-opacity: .1;
      }

      .st17 {
        fill: url(#linear-gradient);
      }
    </style>
    <linearGradient id="linear-gradient" x1="-764.6" y1="-46" x2="328.7" y2="-46" gradientTransform="translate(812.9 895) rotate(90) scale(.2 .1)" gradientUnits="userSpaceOnUse">
      <stop offset="0" stop-color="#195c86"/>
      <stop offset="1" stop-color="#124163"/>
    </linearGradient>
    <linearGradient id="linear-gradient1" x1="-819.2" y1="-710" x2="819.2" y2="-710" gradientTransform="translate(0 100) scale(1 -1)" gradientUnits="userSpaceOnUse">
      <stop offset="0" stop-color="#000" stop-opacity="0"/>
      <stop offset="1" stop-color="#000" stop-opacity=".1"/>
    </linearGradient>
    <linearGradient id="linear-gradient2" x1="-819.2" y1="-710" x2="819.2" y2="-710" gradientTransform="translate(0 100) scale(1 -1)" gradientUnits="userSpaceOnUse">
      <stop offset="0" stop-color="#000" stop-opacity="0"/>
      <stop offset="1" stop-color="#000" stop-opacity=".1"/>
    </linearGradient>
    <linearGradient id="linear-gradient3" x1="-819.2" y1="-6" x2="819.2" y2="-6" gradientTransform="translate(320.9 567) rotate(90) scale(.1)" gradientUnits="userSpaceOnUse">
      <stop offset="0" stop-color="#ef4a37"/>
      <stop offset="1" stop-color="#f2664c"/>
    </linearGradient>
    <linearGradient id="linear-gradient4" x1="-819.2" y1="-6" x2="819.2" y2="-6" gradientTransform="translate(320.9 947) rotate(-90) scale(.1 -.1)" gradientUnits="userSpaceOnUse">
      <stop offset="0" stop-color="#ef4a37"/>
      <stop offset="1" stop-color="#f2664c"/>
    </linearGradient>
  </defs>
  <path class="st5" d="M0,490h639v534H0V490"/>
  <path class="st5" d="M643,1024h-160V490h160v534M0,490h160v534H0V490"/>
  <path class="st7" d="M639,1024.1h-42V490h42v534.1"/>
  <path class="st5" d="M611,1024.1v-179.8h413v179.8h-413"/>
  <path class="st17" d="M611,908.2h413v29.3h-413v-29.3M611,922.9v-158.9h413v158.9h-413"/>
  <path class="st5" d="M824,134h200v390h-200V134"/>
  <path class="st5" d="M321.5,479l73.7-7c32-132.2,20.5-191.1-34.4-176.8-10.7,2.8-23.9,4.2-39.4,4.3-15.5-.1-28.6-1.6-39.4-4.3-54.9-14.3-66.3,44.6-34.3,176.8l73.7,7M0,0h639v490H0V0"/>
  <path class="st5" d="M321.5,479l-73.7-7c-32-132.2-20.5-191.1,34.3-176.8,10.7,2.8,23.9,4.2,39.4,4.3,15.5-.1,28.6-1.6,39.4-4.3,54.9-14.3,66.3,44.6,34.4,176.8l-73.7,7"/>
  <path class="st5" d="M639,524h385v240h-385v-240"/>
  <path class="st10" d="M365,220.4c0,2.5-.9,4.7-2.5,6.4-1.7,1.8-3.7,2.7-6.1,2.7s-4.5-.9-6.1-2.7c-1.7-1.8-2.5-3.9-2.5-6.4s.8-4.7,2.5-6.5,3.8-2.6,6.1-2.6,4.4.9,6.1,2.6c1.7,1.8,2.5,3.9,2.5,6.5M295.6,220.4c0,2.5-.8,4.7-2.5,6.4-1.7,1.8-3.7,2.7-6.1,2.7s-4.4-.9-6.1-2.7-2.5-3.9-2.5-6.4.8-4.7,2.5-6.5,3.8-2.6,6.1-2.6,4.4.9,6.1,2.6c1.7,1.8,2.5,3.9,2.5,6.5"/>
  <path class="st8" d="M241.2,184.2c.3-10.2,2.4-17.3,6.1-21.2,4.6-5.9,9.1-9.4,13.5-10.4,4.4-1.1,8.5-1.5,12.1-1.2,3.2.2,8.5,1.7,15.7,4.6-23.6-5.3-39.4,4.1-47.3,28.3M0,310c35.6-6.8,67.4-17.6,95.4-32.5-42.1,35.4-73.9,53.2-95.4,53.5v-21M143.8,244.9c7-6,13.7-12.4,20.1-19.1l9.2-10.2c6.4-7.1,13.1-9.1,20.1-6l.8.4c2.5,1.3,4.4,3.2,5.7,5.8l2.2,4.1,1,2-1.8-1.8c-8.9-7.2-28.1,1.1-57.3,24.8"/>
  <path d="M143.8,244.9l-3.1,2.5c-12.2,10.1-25.5,19.1-39.8,27.1l-5.6,3c-28.1,14.8-59.9,25.6-95.4,32.5V0h322v162.5h-7c-7.1,0-15.1-1.8-23.8-5.4l-2.8-1.2c-7.2-2.9-12.4-4.4-15.7-4.6-3.6-.2-7.7.2-12.1,1.2s-8.9,4.5-13.5,10.4c-3.7,3.9-5.7,11-6.1,21.2-.2,6,.2,13,1.2,21.1.4,4.9.9,9.6,1.7,14.2.9,7.5-1.4,12.2-6.9,14.2l-8.8,3.3c-10.2,3-16.8,2.1-19.7-2.9-2.4-4.2-4.3-8.3-5.8-12.3l-1-2-2.2-4.1c-1.3-2.5-3.2-4.5-5.7-5.8l-.8-.4c-7-3.1-13.7-1.1-20.1,6l-9.2,10.2c-6.4,6.7-13.1,13.1-20.1,19.1"/>
  <path d="M183.4,220.7h.2l.7-.6h.2l4.3-1.6h.4c0-.1,2.2-.4,2.2-.4h1.3c.3.1.4.3.6.7.2.3.2.6,0,.9,0,.3-.3.5-.8.6l-2.2,1h-.2l-.7.5h-.1l-.3.2-.5.3h0l-2.2,1.6-2.2,1.9h0c0-.1-.4.3-.4.3h-.1c0,.1-1.7,2.2-1.7,2.2h-.1c0,.1-.6,1-.6,1h0c0,.1-.2.4-.2.4l-.2.4v.2c-.1,0-.2.2-.2.2v.2h-.2l-.8,1.8-.3.9-.4,2.2v1.8h0v1.6l.3,2.2.2.8v.5h.1l.6,1.6,1.1,2.1h0v.2l.3.5.6.7h0c0,.1.4.6.4.6h.1v.2l.6.7h.1v.2h.2l1,1.1h0c0,.1.3.4.3.4l.4.3h.1c0,.1.1.1.1.1,0,.1,2.6,2.1,2.6,2.1l1.3.7h0l.8.4h.1l.4.2h.1c0,.1.2.2.2.2h.2l.9.4h0l.4.2h.1l2.3.8.4.2h0l.3.8-.3.7h0c0,.1-.6.4-.6.4h-1c0,.1-.1.1-.1.1l-3.6-.2h-.8c0-.1-.1-.1-.1-.1l-1.1-.2h-.1l-.6-.2h-.1l-1.9-.8h-.1l-.2-.2-1.1-.5h0l-2.6-1.6h-.2l-3.3-3.1-.2-.2h0c0-.1,0,0,0,0l-.8-.9v-.2l-.2-.2-.2-.2h0c0-.1-.8-1.4-.8-1.4h0c-.6-.9-1-1.8-1.3-2.7h0l-.7-1.9h0c0-.1-.2-1-.2-1-.3-1-.5-2.1-.5-3.1v-3.1h0c0-.1.5-3,.5-3h0c.2-1.1.5-2,1-3v-.2h0c0-.1.3-.7.3-.7v-.2c.1,0,.2-.1.2-.1h0l.4-.7h.1c0-.1.2-.4.2-.4h-.1c0,.1.2-.2.2-.2h0c0-.1.3-.6.3-.6h.1c0-.1.4-.7.4-.7h.1v-.3l1.2-1.5h.1l.2-.3.3-.3.2-.2v-.2c.1,0,1.2-1,1.2-1h.2l.2-.2h0v-.2l.5-.4h.1l2-1.4h.2M195.8,237.6c.3,2,.2,3.8-.4,5.3-.6,1.6-1.5,2.5-2.6,2.7s-2.2-.4-3.2-1.8c-1-1.3-1.7-2.9-2-4.9-.3-2.1-.2-3.9.4-5.5.6-1.5,1.4-2.4,2.5-2.5,1.1-.2,2.2.4,3.2,1.7s1.6,3,1.9,5.1M191.2,254.8h0"/>
  <path class="st9" d="M639,134V0h385v134h-385"/>
  <path class="st12" d="M639,134h185v390h-185V134"/>
  <path class="st16" d="M1024,785v16h-411v-16h411"/>
  <path class="st6" d="M683,785c0,33.3-16.7,50-50,50v-50h50"/>
  <path class="st0" d="M769,785h50v50c-33.3,0-50-16.7-50-50"/>
  <path class="st3" d="M160,498v-8h323v8H160M483,1016v8H160v-8h323"/>
  <path class="st14" d="M160,498h323v157H160v-157"/>
  <path class="st13" d="M483,655v204H160v-204h323"/>
  <path class="st11" d="M483,859v157H160v-157h323"/>
  <path class="st3" d="M152,490h8v534h-8V490"/>
  <path class="st16" d="M152,490v534h-8V490h8"/>
  <path class="st16" d="M491,490h8v534h-8V490"/>
  <path class="st3" d="M491,490v534h-8V490h8"/>
  <path class="st3" d="M320.4,716.5l40.9,5.4,6.2,21.2-8.2,27.1-38.9,9.4-38.9-9.4-8.2-27.1,6.2-21.2,40.9-5.4"/>
  <path class="st3" d="M483,510H160v-12h323v12"/>
  <path class="st3" d="M483,994v14H160v-14h323M287.6,1003.2l8.1-.3-8.1.3"/>
  <path d="M350.5,155.9l-2.8,1.2c-8.7,3.6-16.6,5.4-23.8,5.4h-7V0h322v310c-35.6-6.8-67.4-17.6-95.5-32.5l-5.5-3c-14.3-7.9-27.5-16.9-39.8-27.1l-3-2.5c-7-6-13.7-12.4-20.1-19.1l-9.2-10.2c-6.4-7.1-13.1-9.1-20.1-6l-.8.4c-2.5,1.3-4.4,3.2-5.7,5.8l-2.1,4.1-1,2c-1.5,4-3.4,8.1-5.8,12.3-2.9,4.9-9.4,5.9-19.6,2.9l-8.9-3.3c-5.4-2-7.7-6.7-6.8-14.2.7-4.6,1.2-9.4,1.6-14.2,1-8.1,1.4-15.1,1.2-21.1-.3-10.2-2.4-17.3-6-21.2-4.6-5.9-9.1-9.4-13.5-10.4-4.4-1.1-8.5-1.5-12.1-1.2-3.2.2-8.5,1.7-15.7,4.6"/>
  <path class="st8" d="M350.5,155.9c7.2-2.9,12.4-4.4,15.7-4.6,3.6-.2,7.7.2,12.1,1.2s8.9,4.5,13.5,10.4c3.7,3.9,5.7,11,6,21.2-7.9-24.2-23.6-33.6-47.2-28.3M436.1,221.9l1-2,2.1-4.1c1.3-2.5,3.2-4.5,5.7-5.8l.8-.4c7-3.1,13.7-1.1,20.1,6l9.2,10.2c6.4,6.7,13.1,13.1,20.1,19.1-29.3-23.7-48.4-31.9-57.4-24.8-.6.5-1.2,1.1-1.8,1.8M543.5,277.5c28.1,14.8,59.9,25.6,95.5,32.5v21c-21.6-.2-53.4-18.1-95.5-53.5"/>
  <path d="M443.2,237.6c.3-2.1,1-3.8,2-5.1s2.1-1.9,3.2-1.7,1.9,1,2.5,2.5c.6,1.6.7,3.4.4,5.5-.3,2-1,3.7-2,4.9-1,1.4-2,2-3.1,1.8s-2-1.1-2.6-2.7c-.5-1.5-.7-3.3-.4-5.3M455.5,220.7h.2l2,1.4h.1l.5.4h.1v.2h.2c0,.1.1.2.1.2l1.1,1v.2c.1,0,.3.2.3.2l.3.3.2.2h.1l1.2,1.6h0v.2h.1c0,.1.4.7.4.7h.1c0,.1.3.6.3.6h.1c0,.1.1.4.1.4h0c0-.1.2.2.2.2h.1c0,.1.4.9.4.9h-.1.1v.2c.1,0,.4.6.4.6h0v.3c.4,1,.8,1.9,1,2.9h0l.5,3h0v3.2c0,1-.2,2-.5,3.1l-.2.9h0c0,.1-.7,2-.7,2h0l-1.4,2.8h0l-.8,1.2h-.1c0,.1-.2.3-.2.3v.2c-.1,0-.2.2-.2.2l-.8.9h0c0-.1-.1,0-.1,0v.2c-.1,0-3.5,3-3.5,3h-.1l-2.6,1.6h-.1l-1.1.5-.2.2h-.2l-1.9.8h-.1l-.5.2h-.2l-1,.3h-.6c0,.1-.1.1-.1.1h-.3l-3.5.3h-1.2c-.2-.1-.4-.2-.6-.4h-.1c-.2-.3-.3-.5-.3-.8s.1-.5.3-.7h0l.4-.3,2.4-.8h.5c0-.1.1-.2.1-.2l.9-.4h.4c0-.1.1-.1.1-.1,0-.1.4-.2.4-.2h.1l.8-.4h0l1.4-.8,2.6-1.9h.2v-.2h.1l.4-.4.3-.3h.1c0-.1,1-1.1,1-1.1h.1v-.2h.2l.5-.8h.1v-.2c.1,0,.5-.4.5-.4h0c0-.1.6-.8.6-.8l.3-.5h0v-.2l1.1-2.1.5-1.5h0v-.5c.1,0,.2-.8.2-.8l.4-2.2v-1.5h0c0-.1-.1-1.9-.1-1.9l-.4-2.2-.3-.9-.8-1.8h0v-.2c-.1,0-.1-.2-.1-.2-.1,0-.2-.2-.2-.2l-.2-.4-.2-.3h0c0-.1-.6-1-.6-1h-.1c0-.1-1.7-2.2-1.7-2.2h-.1c0-.1-.4-.6-.4-.6h0c0,.1-2.1-1.8-2.1-1.8l-2.2-1.5h-.1l-.5-.4h-.4v-.2l-.7-.4h-.2l-2.2-1.1c-.5,0-.7-.2-.8-.6-.3-.3-.3-.6,0-.9.1-.4.3-.6.6-.6.3-.3.5-.3.9-.1h.5l2.1.3h.4c0,.1,4.4,1.6,4.4,1.6h.2l.7.6h.2M447.8,254.8h0"/>
  <path d="M408.8,147.1c.9.6,1.4,1.4,1.8,2.2.3,1,.3,1.9.1,2.9-.3.9-.9,1.7-1.8,2.4-26.4,19.9-57.4,28.3-92.8,25.2-1.2-.1-2.1-.5-2.8-1.2-.7-.6-1.2-1.4-1.4-2.4-.2-1-.2-2,0-2.9.6-.9,1.3-1.6,2.2-2.1,18.8-10,33.9-27.7,45.2-53.1.4-.9,1-1.6,1.8-2.1s1.7-.7,2.6-.7,1.9.3,2.6.8l42.5,31.1"/>
  <path d="M357.9,149.6c.6.6,1,1.2,1.1,1.9v2.2c-.5.7-1,1.2-1.8,1.7-22.3,12.9-47,16.6-74.1,11.1-.9-.2-1.6-.6-2.1-1.2-.5-.5-.8-1.2-.8-2.1-.1-.8,0-1.6.3-2.2.5-.7,1.1-1.2,1.9-1.5,15.5-6,28.8-18.4,39.9-37,.4-.7.9-1.1,1.6-1.4s1.4-.4,2.1-.3,1.4.4,2,.9l30,27.9"/>
  <path class="st7" d="M42,1024.1H0V490h42v534"/>
  <path class="st12" d="M666.5,151.3v26.6l1.5,15.7,6,26.2,4,13.8,11.6,28.4,8,19.7c1.3,3.1,3.1,5.9,5.5,8.2l.6.5c3.5,3.4,7.6,5.7,12.2,6.8l4.8,1.1,9.8.4,6-1c4.4-.7,8.4-2.4,11.9-5.2,3.6-2.9,6.2-6.5,7.8-10.9l5.5-14.9,17.6-47.9,18.8-49.2v-13.7l2.5-4.6,5.8-11.3,14.5,4.6v182.4h-175v-175.7h20.5"/>
  <path class="st1" d="M666.5,151.3h24.9l2.9,16.3.7,4.1,1,6.2c.7,4.4,2.5,8.3,5.5,11.8l8.3,9.6c2.2,2.6,4.9,4.6,8.1,6.1,3.1,1.4,6.4,2.1,9.8,2.1,5.5,0,10.3-1.7,14.6-5l3.5-2.7c2.1-1.6,3.8-3.6,5.3-5.8l4.8-7.5c.9-1.4,1.6-2.9,2.2-4.4l11.7-30.6h30.9l-2.4,4.6v13.7l-18.8,49.2-17.6,47.9-16.8-17.2h-37.5l-17.8,12.5-11.6-28.4-4-13.8-6-26.2-1.5-15.7v-26.6M716.2,231.4c-.7,0-1.4.3-1.9.8s-.8,1.2-.8,1.9h0c0,.8.3,1.4.8,1.9s1.2.8,1.9.8h21.2c.7,0,1.4-.3,1.9-.8s.8-1.1.8-1.8h0c0-.8-.3-1.4-.8-2s-1.2-.8-1.9-.8h-21.2M716.2,221.4c-.7,0-1.4.3-1.9.8s-.8,1.2-.8,1.9h0c0,.8.3,1.4.8,1.9s1.2.8,1.9.8h21.2c.7,0,1.4-.3,1.9-.8s.8-1.1.8-1.8h0c0-.8-.3-1.4-.8-2s-1.2-.8-1.9-.8h-21.2M716.2,211.4c-.7,0-1.4.3-1.9.8s-.8,1.2-.8,1.9h0c0,.8.3,1.4.8,1.9s1.2.8,1.9.8h21.2c.7,0,1.4-.3,1.9-.8s.8-1.1.8-1.8h0c0-.8-.3-1.4-.8-2s-1.2-.8-1.9-.8h-21.2"/>
  <path class="st15" d="M716.2,211.4h21.2c.7,0,1.4.3,1.9.8s.8,1.2.8,1.9h0c0,.8-.3,1.4-.8,1.9s-1.2.8-1.9.8h-21.2c-.7,0-1.4-.3-1.9-.8s-.8-1.1-.8-1.8h0c0-.8.3-1.4.8-2s1.2-.8,1.9-.8M769.8,151.3l-11.7,30.6c-.6,1.5-1.3,3-2.2,4.4l-4.8,7.5c-1.5,2.3-3.2,4.2-5.3,5.8l-3.5,2.7c-4.3,3.4-9.1,5-14.6,5s-6.8-.7-9.8-2.1c-3.1-1.4-5.8-3.5-8.1-6.1l-8.3-9.6c-2.9-3.4-4.8-7.4-5.5-11.8l-1-6.2-.7-4.1-2.9-16.3h78.3M716.2,221.4h21.2c.7,0,1.4.3,1.9.8s.8,1.2.8,1.9h0c0,.8-.3,1.4-.8,1.9s-1.2.8-1.9.8h-21.2c-.7,0-1.4-.3-1.9-.8s-.8-1.1-.8-1.8h0c0-.8.3-1.4.8-2s1.2-.8,1.9-.8M716.2,231.4h21.2c.7,0,1.4.3,1.9.8s.8,1.2.8,1.9h0c0,.8-.3,1.4-.8,1.9s-1.2.8-1.9.8h-21.2c-.7,0-1.4-.3-1.9-.8s-.8-1.1-.8-1.8h0c0-.8.3-1.4.8-2s1.2-.8,1.9-.8"/>
  <path class="st4" d="M761.8,266.7l-5.5,14.9c-1.6,4.3-4.2,8-7.8,10.9-3.5,2.8-7.5,4.6-11.9,5.2l-6,1-9.8-.4-4.8-1.1c-4.7-1.1-8.8-3.3-12.2-6.8l-.6-.5c-2.4-2.4-4.2-5.1-5.5-8.2l-8-19.7,17.8-12.5h37.5l16.8,17.2"/>
  <path class="st15" d="M769.8,326.3l-11.7,30.6c-.6,1.5-1.3,3-2.2,4.4l-4.8,7.5c-1.5,2.3-3.2,4.2-5.3,5.9l-3.5,2.7c-4.3,3.4-9.1,5-14.6,5s-6.8-.7-9.8-2.1c-3.1-1.4-5.8-3.4-8.1-6l-8.3-9.5c-2.9-3.4-4.8-7.4-5.5-11.8l-1-6.2-.7-4.1-2.9-16.3h78.3M716.2,386.4h21.2c.7,0,1.4.3,1.9.8s.8,1.2.8,1.9h0c0,.8-.3,1.4-.8,1.9s-1.2.8-1.9.8h-21.2c-.7,0-1.4-.3-1.9-.8s-.8-1.1-.8-1.9h0c0-.8.3-1.4.8-2,.5-.5,1.2-.8,1.9-.8M716.2,396.4h21.2c.7,0,1.4.3,1.9.8s.8,1.2.8,1.9h0c0,.8-.3,1.4-.8,1.9s-1.2.8-1.9.8h-21.2c-.7,0-1.4-.3-1.9-.8s-.8-1.1-.8-1.9h0c0-.8.3-1.4.8-2,.5-.5,1.2-.8,1.9-.8M716.2,406.4h21.2c.7,0,1.4.3,1.9.8s.8,1.2.8,1.9h0c0,.8-.3,1.4-.8,1.9s-1.2.8-1.9.8h-21.2c-.7,0-1.4-.3-1.9-.8s-.8-1.1-.8-1.9h0c0-.8.3-1.4.8-2,.5-.5,1.2-.8,1.9-.8"/>
  <path class="st1" d="M716.2,406.4c-.7,0-1.4.3-1.9.8s-.8,1.2-.8,1.9h0c0,.8.3,1.4.8,1.9s1.2.8,1.9.8h21.2c.7,0,1.4-.3,1.9-.8s.8-1.1.8-1.9h0c0-.8-.3-1.4-.8-2-.5-.5-1.2-.8-1.9-.8h-21.2M691.5,326.3l2.9,16.3.7,4.1,1,6.2c.7,4.4,2.5,8.3,5.5,11.8l8.3,9.5c2.2,2.6,4.9,4.6,8.1,6,3.1,1.4,6.4,2.1,9.8,2.1,5.5,0,10.3-1.7,14.6-5l3.5-2.7c2.1-1.6,3.8-3.6,5.3-5.9l4.8-7.5c.9-1.4,1.6-2.9,2.2-4.4l11.7-30.6h30.9l-2.4,4.6v13.7l-18.8,49.2-17.6,47.9-16.8-17.2h-37.5l-17.8,12.5-11.6-28.4-4-13.8-6-26.2-1.5-15.7v-26.7h24.9M716.2,386.4c-.7,0-1.4.3-1.9.8s-.8,1.2-.8,1.9h0c0,.8.3,1.4.8,1.9s1.2.8,1.9.8h21.2c.7,0,1.4-.3,1.9-.8s.8-1.1.8-1.9h0c0-.8-.3-1.4-.8-2-.5-.5-1.2-.8-1.9-.8h-21.2M716.2,396.4c-.7,0-1.4.3-1.9.8s-.8,1.2-.8,1.9h0c0,.8.3,1.4.8,1.9s1.2.8,1.9.8h21.2c.7,0,1.4-.3,1.9-.8s.8-1.1.8-1.9h0c0-.8-.3-1.4-.8-2-.5-.5-1.2-.8-1.9-.8h-21.2"/>
  <path class="st12" d="M666.5,326.3v26.7l1.5,15.7,6,26.2,4,13.8,11.6,28.4,8,19.7c1.3,3.1,3.1,5.9,5.5,8.2l.6.5c3.5,3.4,7.6,5.7,12.2,6.8l4.8,1.1,9.8.4,6-1c4.4-.7,8.4-2.4,11.9-5.2,3.6-2.9,6.2-6.5,7.8-10.9l5.5-14.9,17.6-47.9,18.8-49.2v-13.7l2.5-4.6,5.8-11.3,14.5,4.5v182.4h-175v-175.7h20.5"/>
  <path class="st4" d="M689.7,437l17.8-12.5h37.5l16.8,17.2-5.5,14.9c-1.6,4.3-4.2,8-7.8,10.9-3.5,2.8-7.5,4.6-11.9,5.2l-6,1-9.8-.4-4.8-1.1c-4.7-1.1-8.8-3.3-12.2-6.8l-.6-.5c-2.4-2.4-4.2-5.1-5.5-8.2l-8-19.7"/>
  <path class="st2" d="M611,899.7h413v10.6h-413v-10.6"/>
  <path class="st8" d="M976.5,654h-72l3.5-11h68.5v11M788.2,641l3.5-11h68.2v11h-71.7"/>
  <path class="st8" d="M788.2,641h71.7v33.5l-20,35.5-44-3.5-21.5-23.5,13.8-42M976.5,654v32.5l-20,35.5-44-3.5-5-17.5-14.5-10.5,11.5-36.5h72"/>
  <path class="st3" d="M278.5,994c13.9-.9,28.2-4.7,42.9-11.5,14.2-7.4,27.7-10.1,40.5-8.2,4.7.7,8.7,1.9,12,3.4,1.6.7,3,1.5,4.2,2.4,16.3,8.7,34.6,13.4,54.9,14h-154.5"/>
  <path class="st5" d="M289,1008c11.8-.7,24-4,36.5-9.8,12.1-6.3,23.5-8.6,34.4-7,4,.6,7.4,1.6,10.2,2.9,1.3.6,2.5,1.2,3.6,2,13.9,7.4,29.4,11.4,46.6,11.9h-131.4"/>
</svg>